<svg xmlns="http://www.w3.org/2000/svg" version="1.1" xmlns:xlink="http://www.w3.org/1999/xlink" xmlns:svgjs="http://svgjs.dev/svgjs" width="100%" height="100%" viewBox="0 0 1000 600"><rect width="1000" height="600" x="0" y="0" fill="#faeee9"/><g><rect width="333.3333333333333" height="333.3333333333333" y="305.391912551218" fill="#b5d43b" transform="matrix(0.44143147663642723,0,0,0.4414314766364272,0,91.61850136311386)" x="283.1696472167969"/><path d="M351.71863901708593 545.8873654162671L351.71863901708593 529.0161988627743L365.3271171627132 529.0161988627743L365.3271171627132 413.34413462494257L331.417466701478 413.34413462494257L331.417466701478 436.48970196279225L311.3114979658279 436.48970196279225L311.3114979658279 397.2537823912808L443.85472875715254 397.2537823912808L443.85472875715254 436.48970196279225L423.77664624721064 436.48970196279225L423.77664624721064 413.34413462494257L384.54072667569926 413.34413462494257L384.54072667569926 529.0161988627743L399.8502645895299 529.0161988627743L399.8502645895299 545.8873654162671L351.71863901708593 545.8873654162671ZM427.98746632915675 534.0357194902598L427.98746632915675 534.0357194902598Q427.98746632915675 531.4701867251006 429.0192566803621 529.1835162170238Q430.05104703156746 526.8689594832389 431.8078792511874 525.1400134893272Q433.5647114708073 523.4389537211238 435.8792682045922 522.4071633699184Q438.165938712669 521.3753730187132 440.81513015495295 521.3753730187132L440.81513015495295 521.3753730187132Q443.3806629201122 521.3753730187132 445.6673334281889 522.4071633699184Q447.98189016197387 523.4389537211238 449.6829499301773 525.1400134893272Q451.411895924089 526.8689594832389 452.44368627529434 529.1835162170238Q453.47547662649964 531.4701867251006 453.47547662649964 534.0357194902598L453.47547662649964 534.0357194902598Q453.47547662649964 536.6849109325437 452.44368627529434 539.027353892037Q451.411895924089 541.3697968515303 449.6829499301773 543.1824015225666Q447.98189016197387 544.9950061936031 445.6673334281889 546.0267965448083Q443.3806629201122 547.0585868960137 440.81513015495295 547.0585868960137L440.81513015495295 547.0585868960137Q438.165938712669 547.0585868960137 435.8792682045922 546.0267965448083Q433.5647114708073 544.9950061936031 431.8078792511874 543.1824015225666Q430.05104703156746 541.3697968515303 429.0192566803621 539.027353892037Q427.98746632915675 536.6849109325437 427.98746632915675 534.0357194902598ZM477.29031338134735 545.8873654162671L477.29031338134735 529.0161988627743L491.4007435897231 529.0161988627743L491.4007435897231 414.23649384760665L477.29031338134735 414.23649384760665L477.29031338134735 397.05857881132306L544.1614826297371 397.2537823912808Q553.1687335335027 397.2537823912808 561.1163078603547 400.65590192768764Q569.0638821872067 404.0301352383862 574.9478758116479 409.85835641141097Q580.8318694360892 415.6865775844358 584.2061027467878 423.6341519112878Q587.5803360574864 431.58172623813977 587.5803360574864 440.70052204473836L587.5803360574864 440.70052204473836Q587.5803360574864 450.2097250112525 582.2819531729183 458.0457544352715Q576.9835702883504 465.88178385929046 567.1955050647537 470.59455600398513L567.1955050647537 470.59455600398513Q571.9919358865732 473.1322025434361 575.9238937114367 476.5343220798429Q579.8279653105922 479.9085553905415 582.5887016557092 483.9241718925299Q585.321551775118 487.93978839451825 586.8552941890719 492.4573569592552Q588.3611503773175 496.97492552399206 588.3611503773175 501.65981144297854L588.3611503773175 501.65981144297854Q588.3611503773175 510.9738108295349 584.9869170666188 519.0329300592199Q581.6126837559202 527.0641630631967 575.728690131479 533.0318153647627Q569.8446965070377 539.027353892037 561.9528946316022 542.457359654152Q554.0610927561668 545.8873654162671 545.0259556266928 545.8873654162671L545.0259556266928 545.8873654162671L477.29031338134735 545.8873654162671ZM545.2211592066507 479.79701048770846L510.6143531027092 479.79701048770846L510.6143531027092 529.0161988627743L545.2211592066507 529.0161988627743Q549.9339313513453 529.0161988627743 553.9495478533338 526.6737559032811Q557.965164355322 524.3313129437879 561.0047629575217 520.5387862474655Q564.0443615597212 516.7741457768514 565.7733075536328 511.977714955032Q567.4743673218363 507.1533979075043 567.4743673218363 502.1617635057271L567.4743673218363 502.1617635057271Q567.4743673218363 497.8393985209479 565.7175351022163 493.82378201895955Q563.9607028825965 489.80816551697114 560.9768767318135 486.6849082376469Q557.965164355322 483.5337647326144 553.9216616276256 481.6653876101614Q549.8502726742206 479.79701048770846 545.2211592066507 479.79701048770846L545.2211592066507 479.79701048770846ZM544.3566862096948 414.23649384760665L510.6143531027092 414.23649384760665L510.6143531027092 462.75852657996614L544.3566862096948 462.75852657996614Q549.0694583543896 462.75852657996614 553.1129610820861 460.89014945751325Q557.184350035491 459.0217723350603 560.1960624119822 455.898515055736Q563.1798885627654 452.74737155070346 564.9367207823852 448.6202101458821Q566.693553002005 444.52093496676895 566.693553002005 440.1149113048651L566.693553002005 440.1149113048651Q566.693553002005 435.2905942573374 564.9367207823852 430.6335945640592Q563.1798885627654 425.97659487078096 560.1402899605657 422.35138552870814Q557.1006913583662 418.7261761866353 553.0293024049613 416.4673919042669Q548.9579134515566 414.23649384760665 544.3566862096948 414.23649384760665L544.3566862096948 414.23649384760665Z " fill="#26225" transform="matrix(0.44143147663642723,0,0,0.4414314766364272,0,91.61850136311386)"/><path d="M699.8363240559896 547.058577975196Q699.8363240559896 547.058577975196 699.8363240559896 547.058577975196ZM745.3302579307509 547.058577975196Q745.3302579307509 547.058577975196 745.3302579307509 547.058577975196ZM790.8241918055122 547.058577975196Q790.8241918055122 547.058577975196 790.8241918055122 547.058577975196ZM836.3181256802734 547.058577975196Q836.3181256802734 547.058577975196 836.3181256802734 547.058577975196ZM881.8120595550347 547.058577975196Q881.8120595550347 547.058577975196 881.8120595550347 547.058577975196ZM927.305993429796 547.058577975196Q927.305993429796 547.058577975196 927.305993429796 547.058577975196ZM972.7999273045573 547.058577975196Q972.7999273045573 547.058577975196 972.7999273045573 547.058577975196ZM1018.2938611793186 547.058577975196Q1018.2938611793186 547.058577975196 1018.2938611793186 547.058577975196ZM1063.7877950540799 547.058577975196Q1063.7877950540799 547.058577975196 1063.7877950540799 547.058577975196ZM1109.2817289288412 547.058577975196Q1109.2817289288412 547.058577975196 1109.2817289288412 547.058577975196ZM1154.7756628036025 547.058577975196Q1154.7756628036025 547.058577975196 1154.7756628036025 547.058577975196ZM1200.2695966783638 547.058577975196Q1200.2695966783638 547.058577975196 1200.2695966783638 547.058577975196ZM1245.7635305531248 547.058577975196Q1245.7635305531248 547.058577975196 1245.7635305531248 547.058577975196ZM1291.2574644278864 547.058577975196Q1291.2574644278864 547.058577975196 1291.2574644278864 547.058577975196ZM1336.7513983026477 547.058577975196Q1336.7513983026477 547.058577975196 1336.7513983026477 547.058577975196ZM1382.245332177409 547.058577975196Q1382.245332177409 547.058577975196 1382.245332177409 547.058577975196ZM1427.7392660521703 547.058577975196Q1427.7392660521703 547.058577975196 1427.7392660521703 547.058577975196ZM1473.2331999269315 547.058577975196Q1473.2331999269315 547.058577975196 1473.2331999269315 547.058577975196ZM1518.7271338016926 547.058577975196Q1518.7271338016926 547.058577975196 1518.7271338016926 547.058577975196ZM1564.2210676764541 547.058577975196Q1564.2210676764541 547.058577975196 1564.2210676764541 547.058577975196ZM1609.7150015512152 547.058577975196Q1609.7150015512152 547.058577975196 1609.7150015512152 547.058577975196ZM1655.2089354259765 547.058577975196Q1655.2089354259765 547.058577975196 1655.2089354259765 547.058577975196ZM1700.7028693007378 547.058577975196Q1700.7028693007378 547.058577975196 1700.7028693007378 547.058577975196ZM1746.1968031754989 547.058577975196Q1746.1968031754989 547.058577975196 1746.1968031754989 547.058577975196ZM1791.6907370502602 547.058577975196Q1791.6907370502602 547.058577975196 1791.6907370502602 547.058577975196ZM1837.184670925022 547.058577975196Q1837.184670925022 547.058577975196 1837.184670925022 547.058577975196ZM1882.6786047997832 547.058577975196Q1882.6786047997832 547.058577975196 1882.6786047997832 547.058577975196ZM1982.1875585766418 427.4456381812999L1967.485074549814 427.4456381812999L1938.3400718325859 398.7916810995455L1938.3400718325859 397.05857885669747L1963.4989393912635 397.05857885669747L1982.1875585766418 427.4456381812999Z " fill="#faeee9" transform="matrix(0.44143147663642723,0,0,0.4414314766364272,0,91.61850136311386)"/></g></svg>